<svg xmlns="http://www.w3.org/2000/svg" viewBox="0 0 760 300" width="760" height="300" role="img" aria-label="Время расчёта файла «город» по версиям с правил 18.09.2026">
<style>.a{font:12px -apple-system,Segoe UI,Roboto,Helvetica,Arial,sans-serif;fill:#94a3b8}.l{font:600 13px -apple-system,Segoe UI,Roboto,Helvetica,Arial,sans-serif;fill:#e2e8f0}.v{font:600 13px -apple-system,Segoe UI,Roboto,Helvetica,Arial,sans-serif;fill:#e2e8f0}.i{font:600 11px -apple-system,Segoe UI,Roboto,Helvetica,Arial,sans-serif}.h{font:600 15px -apple-system,Segoe UI,Roboto,Helvetica,Arial,sans-serif;fill:#e2e8f0}</style>
<rect width="760" height="300" rx="16" fill="#0b1220"/>
<text x="56" y="28" class="h">Файл «город» 3,2 ГБ: время расчёта по версиям, меньше — лучше; в столбце подключено и пиковая память</text>
<line x1="56" y1="48.0" x2="736" y2="48.0" stroke="#1e293b"/><text x="48" y="52.0" class="a" text-anchor="end">2500</text><line x1="56" y1="102.0" x2="736" y2="102.0" stroke="#1e293b"/><text x="48" y="106.0" class="a" text-anchor="end">1875</text><line x1="56" y1="156.0" x2="736" y2="156.0" stroke="#1e293b"/><text x="48" y="160.0" class="a" text-anchor="end">1250</text><line x1="56" y1="210.0" x2="736" y2="210.0" stroke="#1e293b"/><text x="48" y="214.0" class="a" text-anchor="end">625</text><line x1="56" y1="264.0" x2="736" y2="264.0" stroke="#1e293b"/><text x="48" y="268.0" class="a" text-anchor="end">0</text><rect x="65.7" y="74.6" width="77.7" height="189.4" rx="6" fill="#334155"/><text x="104.6" y="66.6" class="v" text-anchor="middle">2192 с</text><text x="104.6" y="236.0" class="i" fill="#cbd5e1" text-anchor="middle">13 178</text><text x="104.6" y="252.0" class="i" fill="#cbd5e1" text-anchor="middle">3,8 ГБ</text><text x="104.6" y="286.0" class="l" text-anchor="middle">v0.5.0</text><rect x="162.9" y="74.6" width="77.7" height="189.4" rx="6" fill="#334155"/><text x="201.7" y="66.6" class="v" text-anchor="middle">2192 с</text><text x="201.7" y="236.0" class="i" fill="#cbd5e1" text-anchor="middle">13 178</text><text x="201.7" y="252.0" class="i" fill="#cbd5e1" text-anchor="middle">3,8 ГБ</text><text x="201.7" y="286.0" class="l" text-anchor="middle">v0.5.1</text><rect x="260.0" y="162.2" width="77.7" height="101.8" rx="6" fill="#334155"/><text x="298.9" y="154.2" class="v" text-anchor="middle">1178 с</text><text x="298.9" y="236.0" class="i" fill="#cbd5e1" text-anchor="middle">13 178</text><text x="298.9" y="252.0" class="i" fill="#cbd5e1" text-anchor="middle">3,3 ГБ</text><text x="298.9" y="286.0" class="l" text-anchor="middle">v0.5.2</text><rect x="357.1" y="173.4" width="77.7" height="90.6" rx="6" fill="#334155"/><text x="396.0" y="165.4" class="v" text-anchor="middle">1049 с</text><text x="396.0" y="236.0" class="i" fill="#cbd5e1" text-anchor="middle">13 178</text><text x="396.0" y="252.0" class="i" fill="#cbd5e1" text-anchor="middle">4,1 ГБ</text><text x="396.0" y="286.0" class="l" text-anchor="middle">v0.5.3</text><rect x="454.3" y="173.1" width="77.7" height="90.9" rx="6" fill="#334155"/><text x="493.1" y="165.1" class="v" text-anchor="middle">1052 с</text><text x="493.1" y="236.0" class="i" fill="#cbd5e1" text-anchor="middle">13 138</text><text x="493.1" y="252.0" class="i" fill="#cbd5e1" text-anchor="middle">2,8 ГБ</text><text x="493.1" y="286.0" class="l" text-anchor="middle">v0.6.0</text><rect x="551.4" y="174.2" width="77.7" height="89.8" rx="6" fill="#334155"/><text x="590.3" y="166.2" class="v" text-anchor="middle">1039 с</text><text x="590.3" y="236.0" class="i" fill="#cbd5e1" text-anchor="middle">13 162</text><text x="590.3" y="252.0" class="i" fill="#cbd5e1" text-anchor="middle">3,2 ГБ</text><text x="590.3" y="286.0" class="l" text-anchor="middle">v0.6.1</text><rect x="648.6" y="174.7" width="77.7" height="89.3" rx="6" fill="#38bdf8"/><text x="687.4" y="166.7" class="v" text-anchor="middle">1034 с</text><text x="687.4" y="236.0" class="i" fill="#0b1220" text-anchor="middle">13 172</text><text x="687.4" y="252.0" class="i" fill="#0b1220" text-anchor="middle">4,3 ГБ</text><text x="687.4" y="286.0" class="l" text-anchor="middle">v0.6.2</text>
</svg>
